IKResults
version=1
nRows=4
nColumns=63
inDegrees=yes

Units are S.I. units (second, meters, Newtons, ...)
If the header above contains a line with 'inDegrees', this indicates whether rotational values are in degrees (yes) or radians (no).

endheader
time	pelvis_tilt	pelvis_list	pelvis_rotation	pelvis_tx	pelvis_ty	pelvis_tz	hip_flexion_r	hip_adduction_r	hip_rotation_r	knee_angle_r	knee_angle_r_beta	ankle_angle_r	subtalar_angle_r	mtp_angle_r	hip_flexion_l	hip_adduction_l	hip_rotation_l	knee_angle_l	knee_angle_l_beta	ankle_angle_l	subtalar_angle_l	mtp_angle_l	L5_S1_Flex_Ext	L5_S1_Lat_Bending	L5_S1_axial_rotation	L4_L5_Flex_Ext	L4_L5_Lat_Bending	L4_L5_axial_rotation	L3_L4_Flex_Ext	L3_L4_Lat_Bending	L3_L4_axial_rotation	L2_L3_Flex_Ext	L2_L3_Lat_Bending	L2_L3_axial_rotation	L1_L2_Flex_Ext	L1_L2_Lat_Bending	L1_L2_axial_rotation	L1_T12_Flex_Ext	L1_T12_Lat_Bending	L1_T12_axial_rotation	Abs_r3	Abs_r2	Abs_r1	Abs_t1	Abs_t2	neck_flexion	neck_bending	neck_rotation	arm_flex_r	arm_add_r	arm_rot_r	elbow_flex_r	pro_sup_r	wrist_flex_r	wrist_dev_r	arm_flex_l	arm_add_l	arm_rot_l	elbow_flex_l	pro_sup_l	wrist_flex_l	wrist_dev_l
      4.03333333	    -14.38070470	     12.82220701	    -18.94305584	     -0.92543915	      0.90152695	     -0.10387277	     25.71021525	    -22.09862086	    -31.28195843	     26.98024126	      0.47089404	     -2.14489356	    -18.44275375	      0.00000000	     37.02904899	      6.02425510	     13.62134590	     28.90229889	      0.50444028	      2.20155874	    -14.21990147	      0.00000000	    -11.05687328	      0.96991439	     -4.15928382	    -20.53371936	      1.28998614	     -4.41923906	    -18.16533710	      2.35824985	     -4.41923906	    -12.63690047	      2.35824985	     -3.63937335	    -10.26741252	      1.97784943	     -3.37941811	     -6.31789739	      1.50239739	     -3.11946287	    -78.97814012	     10.97186559	    -23.13268885	      0.00000000	      0.00000000	     28.23422365	     35.95978039	     13.58444608	      0.00000000	    -90.00000009	      0.00000000	     74.77101301	     89.99559364	      0.00000000	      0.00000000	     88.43008059	    -20.18302631	      4.20329688	     23.03238746	     89.99559364	      0.00000000	      0.00000000
      4.06666667	    -13.95884749	     11.72681695	    -19.20641580	     -0.92778434	      0.90249151	     -0.10067073	     25.06197198	    -19.82405823	    -28.60983805	     25.44356079	      0.44407391	      5.89987589	    -13.09123754	      0.00000000	     36.63605067	      4.54738349	     12.32830619	     29.43687645	      0.51377042	      3.48789541	    -12.46219185	      0.00000000	    -10.61052911	      0.91943321	     -4.00339573	    -19.70481362	      1.22284617	     -4.25360797	    -17.43203828	      2.23550992	     -4.25360797	    -12.12677372	      2.23550992	     -3.50297127	     -9.85293734	      1.87490821	     -3.25275903	     -6.06285634	      1.42420205	     -3.00254680	    -75.78994841	     10.40081240	    -22.26568605	      0.00000000	      0.00000000	     28.26894692	     37.22694732	      9.25446015	      0.00000000	    -90.00000009	      0.00000000	     74.77992439	     89.99559364	      0.00000000	      0.00000000	     83.01351733	    -18.91083781	     -2.59976241	     24.26906735	     89.99559364	      0.00000000	      0.00000000
      4.10000000	    -13.08563870	     10.69295261	    -19.71723165	     -0.92860381	      0.90411920	     -0.09786605	     23.49291965	    -18.82056518	    -30.54387205	     24.01721919	      0.41917955	     13.80700556	     -1.37734066	      0.00000000	     35.63327055	      3.32356897	     11.27995313	     29.81537294	      0.52037643	      4.67875897	    -11.31419776	      0.00000000	    -10.21442512	      0.86463233	     -3.87483799	    -18.96920889	      1.14996099	     -4.11701537	    -16.78127903	      2.10226704	     -4.11701537	    -11.67406647	      2.10226704	     -3.39048324	     -9.48511516	      1.76315824	     -3.14830587	     -5.83652251	      1.33931547	     -2.90612850	    -72.96061717	      9.78089380	    -21.55068647	      0.00000000	      0.00000000	     28.30860273	     37.98624567	      5.34025422	      0.00000000	    -90.00000009	      0.00000000	     74.78635937	     89.99559364	      0.00000000	      0.00000000	     77.49062157	    -17.74823108	     -7.79056124	     25.72858038	     89.99559364	      0.00000000	      0.00000000
      4.13333333	    -12.02511247	     10.02551038	    -20.82143610	     -0.92942593	      0.90560872	     -0.09427483	     22.24906274	    -18.43433539	    -33.28067614	     23.24463419	      0.40569540	     19.20692332	      9.87392454	      0.00000000	     34.40960305	      2.13301004	      9.63773045	     30.01489630	      0.52385877	      5.91573817	     -9.98362189	      0.00000000	     -9.80478356	      0.74242042	     -3.71620602	    -18.20846355	      0.98741915	     -3.94846890	    -16.10827891	      1.80512100	     -3.94846890	    -11.20588713	      1.80512100	     -3.25168027	     -9.10472201	      1.51394371	     -3.01941739	     -5.60245333	      1.15000922	     -2.78715452	    -70.03458848	      8.39840822	    -20.66842303	      0.00000000	      0.00000000	     28.34647506	     38.00119742	      0.73153504	      0.00000000	    -90.00000009	      0.00000000	     74.79013266	     89.99559364	      0.00000000	      0.00000000	     71.94752043	    -16.78714901	    -11.09853443	     27.21272366	     89.99559364	      0.00000000	      0.00000000
